<svg width="12" height="12" viewBox="0 0 12 12" fill="none" xmlns="http://www.w3.org/2000/svg">
<path d="M10.6743 4.92613V9.44253C10.6743 9.55143 10.631 9.65586 10.554 9.73286C10.477 9.80986 10.3726 9.85312 10.2637 9.85312C10.1548 9.85312 10.0504 9.80986 9.97337 9.73286C9.89637 9.65586 9.85312 9.55143 9.85312 9.44253V7.80021C9.85312 7.47353 9.72334 7.16023 9.49235 6.92923C9.26135 6.69823 8.94805 6.56846 8.62137 6.56846H7.38962V1.64148C7.38962 1.42369 7.30311 1.21482 7.14911 1.06083C6.99511 0.906828 6.78625 0.820313 6.56846 0.820312H1.64148C1.42369 0.820313 1.21482 0.906828 1.06083 1.06083C0.906828 1.21482 0.820313 1.42369 0.820312 1.64148V10.6743C0.820313 10.8921 0.906828 11.1009 1.06083 11.2549C1.21482 11.4089 1.42369 11.4954 1.64148 11.4954H6.56846C6.78625 11.4954 6.99511 11.4089 7.14911 11.2549C7.30311 11.1009 7.38962 10.8921 7.38962 10.6743V7.38962H8.62137C8.73026 7.38962 8.8347 7.43288 8.9117 7.50988C8.9887 7.58688 9.03195 7.69131 9.03195 7.80021V9.44253C9.03195 9.76921 9.16173 10.0825 9.39272 10.3135C9.62372 10.5445 9.93702 10.6743 10.2637 10.6743C10.5904 10.6743 10.9037 10.5445 11.1347 10.3135C11.3657 10.0825 11.4954 9.76921 11.4954 9.44253V4.10497C11.4954 3.88718 11.4089 3.67832 11.2549 3.52432C11.1009 3.37032 10.8921 3.2838 10.6743 3.2838V2.04385C10.6721 1.93638 10.6279 1.83405 10.5512 1.75882C10.4744 1.68358 10.3712 1.64145 10.2637 1.64148C10.2065 1.64242 10.1501 1.65507 10.098 1.67863C10.0459 1.7022 9.9992 1.73619 9.96073 1.7785C9.92227 1.82082 9.89287 1.87056 9.87436 1.92467C9.85585 1.97878 9.84862 2.03611 9.85312 2.09312V4.10497C9.85312 4.26738 9.90128 4.42614 9.99151 4.56118C10.0817 4.69622 10.21 4.80147 10.36 4.86363C10.5101 4.92578 10.6752 4.94204 10.8345 4.91035C10.9938 4.87867 11.1401 4.80046 11.2549 4.68562C11.3698 4.57078 11.448 4.42446 11.4797 4.26517C11.5114 4.10588 11.4951 3.94077 11.4329 3.79072C11.3708 3.64067 11.2655 3.51243 11.1305 3.4222C10.9955 3.33196 10.8367 3.2838 10.6743 3.2838V4.92613ZM6.56846 5.33671C6.56846 5.44561 6.5252 5.55004 6.4482 5.62704C6.3712 5.70404 6.26677 5.7473 6.15788 5.7473H2.05206C1.94317 5.7473 1.83873 5.70404 1.76173 5.62704C1.68473 5.55004 1.64148 5.44561 1.64148 5.33671V2.87322C1.64148 2.76433 1.68473 2.6599 1.76173 2.5829C1.83873 2.5059 1.94317 2.46264 2.05206 2.46264H6.15788C6.26677 2.46264 6.3712 2.5059 6.4482 2.5829C6.5252 2.6599 6.56846 2.76433 6.56846 2.87322V5.33671Z" fill="white"/>
</svg>
