<svg width="143" height="432" viewBox="0 0 143 432" fill="none" xmlns="http://www.w3.org/2000/svg">
<g filter="url(#filter0_d_484_6633)">
<path d="M113 367.272L113 380.84C113 387.581 111.208 392.787 107.624 396.456C104.04 400.125 98.8773 401.96 92.136 401.96L51.56 401.96C44.8187 401.96 39.656 400.125 36.072 396.456C32.488 392.787 30.696 387.581 30.696 380.84L30.696 367.272C30.696 360.616 32.5307 355.453 36.2 351.784C39.784 348.115 44.904 346.28 51.56 346.28L55.4 346.28C57.2773 346.28 58.216 347.176 58.216 348.968L58.216 359.848C58.216 361.64 57.2773 362.536 55.4 362.536L52.328 362.536C49.5973 362.536 47.6773 363.091 46.568 364.2C45.3733 365.309 44.776 367.229 44.776 369.96L44.776 378.28C44.776 380.925 45.3733 382.845 46.568 384.04C47.6773 385.149 49.5973 385.704 52.328 385.704L91.368 385.704C94.0987 385.704 96.0613 385.149 97.256 384.04C98.3653 382.845 98.92 380.925 98.92 378.28L98.92 369.96C98.92 367.229 98.3653 365.309 97.256 364.2C96.0613 363.091 94.0987 362.536 91.368 362.536L83.304 362.536C82.3653 362.536 81.896 363.005 81.896 363.944L81.896 371.624C81.896 373.416 81 374.312 79.208 374.312L70.504 374.312C68.712 374.312 67.816 373.416 67.816 371.624L67.816 349.224C67.816 347.261 68.7973 346.28 70.76 346.28L92.136 346.28C98.792 346.28 103.955 348.115 107.624 351.784C111.208 355.453 113 360.616 113 367.272ZM113 328.114L113 340.402C113 341.938 112.104 342.45 110.312 341.938L33.384 321.714C31.592 321.117 30.696 319.837 30.696 317.874L30.696 300.85C30.696 298.717 31.592 297.437 33.384 297.01L110.312 276.786C112.104 276.274 113 276.786 113 278.322L113 290.61C113 291.549 112.829 292.189 112.488 292.53C112.061 292.871 111.336 293.127 110.312 293.298L96.232 296.882L96.232 321.842L110.312 325.426C111.336 325.597 112.061 325.895 112.488 326.322C112.829 326.663 113 327.261 113 328.114ZM46.184 309.554L83.176 318.77L83.176 299.826L46.184 309.042L46.184 309.554ZM113 257.632L113 268.512C113 270.304 112.104 271.2 110.312 271.2L33.384 271.2C31.592 271.2 30.696 270.304 30.696 268.512L30.696 238.048C30.696 231.392 32.5307 226.187 36.2 222.432C39.8693 218.677 45.032 216.8 51.688 216.8L61.672 216.8C71.3147 216.8 77.7147 220.597 80.872 228.192L81.384 228.192L109.928 214.496C111.976 213.728 113 214.453 113 216.672L113 227.04C113 228.576 112.829 229.685 112.488 230.368C112.147 231.051 111.421 231.605 110.312 232.032L82.664 244.832L82.664 253.408C82.664 254.432 83.1333 254.944 84.072 254.944L110.312 254.944C112.104 254.944 113 255.84 113 257.632ZM69.608 253.536L69.608 240.992C69.608 238.261 69.0533 236.256 67.944 234.976C66.7493 233.696 64.872 233.056 62.312 233.056L52.328 233.056C49.6827 233.056 47.7627 233.696 46.568 234.976C45.3733 236.256 44.776 238.261 44.776 240.992L44.776 253.536C44.776 254.475 45.2453 254.944 46.184 254.944L68.2 254.944C69.1387 254.944 69.608 254.475 69.608 253.536ZM113 198.384L113 210.672C113 212.208 112.104 212.72 110.312 212.208L33.384 191.984C31.592 191.387 30.696 190.107 30.696 188.144L30.696 171.12C30.696 168.987 31.592 167.707 33.384 167.28L110.312 147.056C112.104 146.544 113 147.056 113 148.592L113 160.88C113 161.819 112.829 162.459 112.488 162.8C112.061 163.141 111.336 163.397 110.312 163.568L96.232 167.152L96.232 192.112L110.312 195.696C111.336 195.867 112.061 196.165 112.488 196.592C112.829 196.933 113 197.531 113 198.384ZM46.184 179.824L83.176 189.04L83.176 170.096L46.184 179.312L46.184 179.824ZM113 108.062L113 121.63C113 128.371 111.208 133.577 107.624 137.246C104.04 140.915 98.8773 142.75 92.136 142.75L51.56 142.75C44.8187 142.75 39.656 140.915 36.072 137.246C32.488 133.577 30.696 128.371 30.696 121.63L30.696 108.062C30.696 101.406 32.5307 96.2433 36.2 92.574C39.784 88.9047 44.904 87.07 51.56 87.07L55.4 87.07C57.2773 87.07 58.216 87.966 58.216 89.758L58.216 100.638C58.216 102.43 57.2773 103.326 55.4 103.326L52.328 103.326C49.5973 103.326 47.6773 103.881 46.568 104.99C45.3733 106.099 44.776 108.019 44.776 110.75L44.776 119.07C44.776 121.715 45.3733 123.635 46.568 124.83C47.6773 125.939 49.5973 126.494 52.328 126.494L91.368 126.494C94.0987 126.494 96.0613 125.939 97.256 124.83C98.3653 123.635 98.92 121.715 98.92 119.07L98.92 110.75C98.92 108.019 98.3653 106.099 97.256 104.99C96.0613 103.881 94.0987 103.326 91.368 103.326L83.304 103.326C82.3653 103.326 81.896 103.795 81.896 104.734L81.896 112.414C81.896 114.206 81 115.102 79.208 115.102L70.504 115.102C68.712 115.102 67.816 114.206 67.816 112.414L67.816 90.014C67.816 88.0513 68.7973 87.07 70.76 87.07L92.136 87.07C98.792 87.07 103.955 88.9047 107.624 92.574C111.208 96.2433 113 101.406 113 108.062ZM113 32.936L113 74.792C113 76.584 112.104 77.48 110.312 77.48L33.384 77.48C31.592 77.48 30.696 76.584 30.696 74.792L30.696 32.936C30.696 31.2293 31.592 30.376 33.384 30.376L42.088 30.376C43.88 30.376 44.776 31.2293 44.776 32.936L44.776 59.688C44.776 60.712 45.2453 61.224 46.184 61.224L62.824 61.224C63.7626 61.224 64.232 60.712 64.232 59.688L64.232 37.8C64.232 36.008 65.128 35.112 66.92 35.112L75.624 35.112C77.416 35.112 78.312 36.008 78.312 37.8L78.312 59.688C78.312 60.712 78.7813 61.224 79.72 61.224L97.512 61.224C98.4507 61.224 98.92 60.712 98.92 59.688L98.92 32.936C98.92 31.2293 99.816 30.376 101.608 30.376L110.312 30.376C112.104 30.376 113 31.2293 113 32.936Z" fill="white"/>
</g>
<defs>
<filter id="filter0_d_484_6633" x="0.695312" y="0.375" width="142.305" height="431.586" filterUnits="userSpaceOnUse" color-interpolation-filters="sRGB">
<feFlood flood-opacity="0" result="BackgroundImageFix"/>
<feColorMatrix in="SourceAlpha" type="matrix" values="0 0 0 0 0 0 0 0 0 0 0 0 0 0 0 0 0 0 127 0" result="hardAlpha"/>
<feOffset/>
<feGaussianBlur stdDeviation="15"/>
<feComposite in2="hardAlpha" operator="out"/>
<feColorMatrix type="matrix" values="0 0 0 0 1 0 0 0 0 1 0 0 0 0 1 0 0 0 0.69 0"/>
<feBlend mode="normal" in2="BackgroundImageFix" result="effect1_dropShadow_484_6633"/>
<feBlend mode="normal" in="SourceGraphic" in2="effect1_dropShadow_484_6633" result="shape"/>
</filter>
</defs>
</svg>
