<svg width="13" height="10" viewBox="0 0 13 10" fill="none" xmlns="http://www.w3.org/2000/svg">
<path d="M6.15811 1.55078C6.2602 1.55078 6.3581 1.59134 6.43029 1.66352C6.50248 1.73571 6.54303 1.83361 6.54303 1.9357V3.09046C6.54303 3.19255 6.50248 3.29046 6.43029 3.36264C6.3581 3.43483 6.2602 3.47538 6.15811 3.47538C6.05602 3.47538 5.95812 3.43483 5.88593 3.36264C5.81374 3.29046 5.77319 3.19255 5.77319 3.09046V1.9357C5.77319 1.83361 5.81374 1.73571 5.88593 1.66352C5.95812 1.59134 6.05602 1.55078 6.15811 1.55078ZM2.87243 2.88415C2.94461 2.81198 3.0425 2.77145 3.14457 2.77145C3.24663 2.77145 3.34452 2.81198 3.41671 2.88415L4.12111 3.58778C4.1569 3.62357 4.18529 3.66606 4.20466 3.71282C4.22402 3.75958 4.23399 3.80969 4.23399 3.86031C4.23399 3.91092 4.22402 3.96103 4.20466 4.00779C4.18529 4.05455 4.1569 4.09704 4.12111 4.13283C4.08532 4.16862 4.04283 4.19701 3.99608 4.21637C3.94932 4.23574 3.8992 4.24571 3.84859 4.24571C3.79797 4.24571 3.74786 4.23574 3.7011 4.21637C3.65434 4.19701 3.61185 4.16862 3.57606 4.13283L2.87243 3.42842C2.80027 3.35624 2.75973 3.25835 2.75973 3.15629C2.75973 3.05422 2.80027 2.95633 2.87243 2.88415ZM1.53906 6.16983C1.53906 6.06774 1.57962 5.96984 1.6518 5.89765C1.72399 5.82546 1.8219 5.78491 1.92398 5.78491H3.14495C3.24704 5.78491 3.34494 5.82546 3.41713 5.89765C3.48932 5.96984 3.52987 6.06774 3.52987 6.16983C3.52987 6.27192 3.48932 6.36982 3.41713 6.44201C3.34494 6.5142 3.24704 6.55475 3.14495 6.55475H1.92398C1.8219 6.55475 1.72399 6.5142 1.6518 6.44201C1.57962 6.36982 1.53906 6.27192 1.53906 6.16983ZM8.85255 6.16983C8.85255 6.06774 8.89311 5.96984 8.96529 5.89765C9.03748 5.82546 9.13539 5.78491 9.23747 5.78491H10.3922C10.4943 5.78491 10.5922 5.82546 10.6644 5.89765C10.7366 5.96984 10.7772 6.06774 10.7772 6.16983C10.7772 6.27192 10.7366 6.36982 10.6644 6.44201C10.5922 6.5142 10.4943 6.55475 10.3922 6.55475H9.23747C9.13539 6.55475 9.03748 6.5142 8.96529 6.44201C8.89311 6.36982 8.85255 6.27192 8.85255 6.16983ZM9.43301 2.90108C9.37968 2.84803 9.30834 2.81699 9.23317 2.81414C9.158 2.81129 9.08451 2.83683 9.02731 2.88569L5.80937 5.63864C5.7344 5.70181 5.67351 5.78001 5.63066 5.86819C5.58781 5.95637 5.56395 6.05257 5.56061 6.15055C5.55728 6.24853 5.57455 6.34612 5.6113 6.43701C5.64806 6.5279 5.70348 6.61007 5.77398 6.67819C5.84449 6.74631 5.92851 6.79888 6.02061 6.83249C6.11271 6.8661 6.21083 6.88 6.30865 6.8733C6.40646 6.8666 6.50177 6.83944 6.58843 6.79359C6.67508 6.74773 6.75115 6.6842 6.81171 6.6071L9.45534 3.29909C9.50133 3.24152 9.52448 3.16901 9.52037 3.09544C9.51625 3.02186 9.48515 2.95239 9.43301 2.90031V2.90108Z" fill="white"/>
<path fill-rule="evenodd" clip-rule="evenodd" d="M4.08619e-06 6.16883C0.000808855 5.27258 0.197217 4.3873 0.575516 3.57481C0.953815 2.76231 1.50489 2.04217 2.19027 1.46466C2.87565 0.887147 3.67881 0.466184 4.5437 0.231156C5.40858 -0.00387178 6.31434 -0.0473008 7.19774 0.103901C8.08114 0.255103 8.9209 0.597292 9.65839 1.10658C10.3959 1.61587 11.0133 2.27998 11.4676 3.05256C11.9219 3.82513 12.2021 4.68755 12.2887 5.57961C12.3752 6.47167 12.266 7.37187 11.9687 8.21737C11.6285 9.18198 10.5484 9.45066 9.71155 9.17968C8.70614 8.85403 7.29425 8.47835 6.15873 8.47835C5.02399 8.47835 3.61056 8.85403 2.60592 9.17968C1.7691 9.45066 0.689012 9.18198 0.348742 8.21737C0.117129 7.55925 -0.00080019 6.86651 4.08619e-06 6.16883ZM6.15873 0.779936C5.2968 0.779714 4.44738 0.986249 3.68178 1.38221C2.91617 1.77817 2.25672 2.352 1.75876 3.05554C1.2608 3.75908 0.93886 4.5718 0.819967 5.4255C0.701074 6.27919 0.788694 7.14896 1.07547 7.96179C1.23175 8.40445 1.78604 8.63617 2.36881 8.44679C3.385 8.11883 4.89466 7.70851 6.15873 7.70851C7.42281 7.70851 8.93324 8.11806 9.94866 8.44756C10.5314 8.63617 11.0857 8.40445 11.242 7.96179C11.5288 7.14896 11.6164 6.27919 11.4975 5.4255C11.3786 4.5718 11.0567 3.75908 10.5587 3.05554C10.0608 2.352 9.40129 1.77817 8.63569 1.38221C7.87009 0.986249 7.02067 0.779714 6.15873 0.779936Z" fill="white"/>
</svg>
