<svg width="10" height="10" viewBox="0 0 10 10" fill="none" xmlns="http://www.w3.org/2000/svg">
<path d="M0.539062 0.0273438H2.07874C2.22245 0.0273438 2.35076 0.0837988 2.44314 0.17618L3.51065 1.24883L3.92123 0.843375C4.13165 0.643217 4.38827 0.540571 4.64488 0.540571H7.72425C7.98086 0.540571 8.23747 0.643217 8.4479 0.843375L8.96113 1.3566C9.16128 1.56703 9.26393 1.82364 9.26393 2.08025V8.75221C9.26393 9.02444 9.15579 9.28553 8.96329 9.47802C8.77079 9.67052 8.50971 9.77867 8.23747 9.77867H3.1052C2.83297 9.77867 2.57188 9.67052 2.37939 9.47802C2.18689 9.28553 2.07874 9.02444 2.07874 8.75221V3.10671C2.07874 2.8501 2.18139 2.59348 2.38155 2.38306L2.787 1.97248L1.86832 1.0538H0.539062V0.0273438ZM4.64488 1.56703V2.59348H7.72425V1.56703H4.64488ZM4.85531 4.64639L3.82885 3.61994H3.1052V4.34359L4.13165 5.37004V7.00211L3.1052 8.02856V8.75221H3.82885L4.85531 7.72576H6.48737L7.51382 8.75221H8.23747V8.02856L7.21102 7.00211V5.37004L8.23747 4.34359V3.61994H7.51382L6.48737 4.64639H4.85531ZM5.15811 5.67285H6.18456V6.6993H5.15811V5.67285Z" fill="white"/>
</svg>
